# xmcd
#
# Track frame offsets:
#	151
#	23733
#	44853
#	55634
#	64900
#	83797
#	100757
#	112224
#	134427
#
# Disc length: 2122 seconds
#
# Revision: 0
# Processed by: cddbd v1.5.2PL0 Copyright (c) Steve Scherf et al.
# Submitted via: EasyCDDAExtractor 12.0.2.1
#
DISCID=7d084809
DTITLE=King Earl Boogie Band - Trouble At Mill
DYEAR=1972
DGENRE=Blues
TTITLE0=Bad Storm Coming
TTITLE1=Take Me Back
TTITLE2=Live Your Own Life P. MC.
TTITLE3=Bovver Blues
TTITLE4=Plastic Jesus
TTITLE5=If The Lord Don't Get You
TTITLE6=Goin' To German
TTITLE7=Keep Your Hands Off My Woman
TTITLE8=Go Down You Murderers
EXTD=
EXTT0=
EXTT1=
EXTT2=
EXTT3=
EXTT4=
EXTT5=
EXTT6=
EXTT7=
EXTT8=
PLAYORDER=
